<?xml version="1.0" standalone="no"?><!DOCTYPE svg PUBLIC "-//W3C//DTD SVG 1.1//EN" "http://www.w3.org/Graphics/SVG/1.1/DTD/svg11.dtd"><svg t="1701770053305" class="icon" viewBox="0 0 1024 1024" version="1.1" xmlns="http://www.w3.org/2000/svg" p-id="1082" xmlns:xlink="http://www.w3.org/1999/xlink" width="200" height="200"><path d="M264.827586 281.229241a17.655172 17.655172 0 0 1-17.655172-17.655172c0-97.350621-63.364414-176.551724-141.24138-176.551724a17.655172 17.655172 0 1 1 0-35.310345c97.350621 0 176.551724 95.037793 176.551725 211.862069a17.655172 17.655172 0 0 1-17.655173 17.655172zM759.172414 248.425931a17.655172 17.655172 0 0 1-17.655173-17.655172c0-98.021517 60.89269-158.896552 158.896552-158.896552a17.655172 17.655172 0 1 1 0 35.310345c-78.530207 0-123.586207 45.056-123.586207 123.586207a17.655172 17.655172 0 0 1-17.655172 17.655172z" fill="#5DA892" p-id="1083"></path><path d="M518.920828 1007.527724c198.550069 2.754207 309.318621-77.34731 370.899862-162.233379 63.611586-87.675586 84.109241-199.20331 64.388413-305.840552C882.829241 153.758897 518.920828 157.025103 518.920828 157.025103S155.030069 153.758897 83.650207 539.453793c-19.738483 106.637241 0.776828 218.14731 64.388414 305.840552 61.563586 84.868414 172.332138 164.987586 370.882207 162.233379z" fill="#81CCB8" p-id="1084"></path><path d="M79.430621 568.35531c-7.997793-7.574069-17.390345-12.129103-27.524414-12.129103-28.672 0-51.906207 34.974897-51.906207 78.106483 0 43.131586 23.234207 78.106483 51.888552 78.106482 12.129103 0 23.145931-6.532414 31.973517-17.019586a417.28 417.28 0 0 1-4.431448-127.064276zM1020.875034 500.788966c-9.939862-41.966345-40.606897-70.603034-68.484413-63.947035-8.66869 2.065655-15.854345 7.591724-21.627587 15.095172a570.968276 570.968276 0 0 1 23.446069 87.51669c2.736552 14.777379 4.608 29.643034 5.790897 44.526345 9.18069 5.014069 18.926345 7.097379 28.389517 4.837517 27.877517-6.638345 42.425379-46.062345 32.485517-88.028689z" fill="#14A085" p-id="1085"></path><path d="M388.413793 407.322483a132.413793 105.931034 0 1 0 264.827586 0 132.413793 105.931034 0 1 0-264.827586 0Z" fill="#FFFFFF" p-id="1086"></path><path d="M441.37931 407.322483a79.448276 52.965517 0 1 0 158.896552 0 79.448276 52.965517 0 1 0-158.896552 0Z" fill="#5DA892" p-id="1087"></path><path d="M158.896552 513.253517a132.413793 105.931034 0 1 0 264.827586 0 132.413793 105.931034 0 1 0-264.827586 0Z" fill="#FFFFFF" p-id="1088"></path><path d="M211.862069 513.253517a79.448276 52.965517 0 1 0 158.896552 0 79.448276 52.965517 0 1 0-158.896552 0Z" fill="#5DA892" p-id="1089"></path><path d="M617.931034 513.253517a132.413793 105.931034 0 1 0 264.827587 0 132.413793 105.931034 0 1 0-264.827587 0Z" fill="#FFFFFF" p-id="1090"></path><path d="M670.896552 513.253517a79.448276 52.965517 0 1 0 158.896551 0 79.448276 52.965517 0 1 0-158.896551 0Z" fill="#5DA892" p-id="1091"></path><path d="M805.075862 728.646621l-70.62069-52.965518a17.655172 17.655172 0 0 0-21.186206 28.230621l24.893793 18.661517c-22.475034 28.265931-94.419862 109.108966-192.406069 123.780414-61.952 9.321931-124.257103-9.780966-185.220414-56.214069l20.833103-15.624827a17.637517 17.637517 0 1 0-21.186207-28.230621l-70.620689 52.965517a17.637517 17.637517 0 1 0 21.186207 28.230621l20.780138-15.589517c0.600276 0.635586 0.971034 1.430069 1.677241 1.977379 59.038897 46.62731 119.913931 70.10869 181.459862 70.10869 12.164414 0 24.364138-0.918069 36.581517-2.754207 112.128-16.896 190.605241-105.931034 215.234207-137.427862l17.425655 13.064827a17.655172 17.655172 0 0 0 21.168552-28.212965z" fill="#5DA892" p-id="1092"></path><path d="M52.965517 69.367172m-52.965517 0a52.965517 52.965517 0 1 0 105.931034 0 52.965517 52.965517 0 1 0-105.931034 0Z" fill="#14A085" p-id="1093"></path><path d="M953.37931 89.529379m-52.965517 0a52.965517 52.965517 0 1 0 105.931035 0 52.965517 52.965517 0 1 0-105.931035 0Z" fill="#14A085" p-id="1094"></path></svg>